<?xml version="1.0" encoding="utf-8"?>
<!-- Generator: Adobe Illustrator 24.3.0, SVG Export Plug-In . SVG Version: 6.00 Build 0)  -->
<svg version="1.1" id="Layer_1" xmlns="http://www.w3.org/2000/svg" xmlns:xlink="http://www.w3.org/1999/xlink" x="0px" y="0px"
	 viewBox="0 0 249 68" style="enable-background:new 0 0 249 68;" xml:space="preserve">
<style type="text/css">
	.st0{fill:#FFFFFF;}
	.st1{fill:#FEC73C;}
	.st2{fill:#F03A16;}
	.st3{fill:none;stroke:#000000;stroke-width:1.68;stroke-linecap:round;stroke-linejoin:round;}
	.st4{fill:none;stroke:#000000;stroke-width:1.68;stroke-linecap:round;stroke-miterlimit:10;}
	.st5{fill:none;stroke:#000000;stroke-width:1.7;stroke-linecap:round;stroke-linejoin:round;}
	.st6{fill:none;stroke:#000000;stroke-width:1.7;stroke-linejoin:round;}
	.st7{fill:#241F42;}
</style>
<g id="Layer_2_1_">
	<g id="Layer_1-2">
		<path class="st0" d="M227.8,0H21.2C9.5,0,0,9,0,20v14c0,11,9.5,20,21.2,20h164.2L197,68l12.7-14h18c11.7,0,21.2-9,21.2-20V20
			C249,9,239.5,0,227.8,0z"/>
		<circle class="st1" cx="50" cy="27.3" r="13.8"/>
		<path class="st2" d="M59.2,20.7c3.1-1.6,4.7-4.1,4.2-5.9c-0.3-1.1-1.2-2-2.3-2.1c-0.8,0-1.5,0.3-1.9,0.9l0,0
			c-0.5-0.6-1.2-0.9-2-0.9c-1.1,0.2-2,1-2.3,2.1C54.5,16.6,56.1,19.1,59.2,20.7z"/>
		<path class="st2" d="M40.8,22.4c3.1-1.6,4.7-4.1,4.2-5.9c-0.3-1.1-1.2-2-2.3-2.1c-0.8,0-1.5,0.3-1.9,0.9l0,0
			c-0.5-0.6-1.2-0.9-2-0.9c-1.1,0.2-2,1-2.3,2.1C36,18.3,37.7,20.8,40.8,22.4z"/>
		<path class="st2" d="M59.2,40c3.1-1.6,4.7-4.1,4.2-5.8c-0.3-1.1-1.2-1.9-2.3-2.2c-0.8,0-1.5,0.3-1.9,0.9l0,0
			c-0.5-0.6-1.2-0.9-2-0.9c-1.1,0.2-2,1-2.3,2.2C54.5,35.9,56.1,38.5,59.2,40z"/>
		<path class="st3" d="M55.5,31.2c-3.2,2.7-7.9,2.7-11.1,0"/>
		<path class="st4" d="M47.5,24.1c-0.6-1.3-2.2-2-3.5-1.4l0,0c-0.6,0.3-1.1,0.7-1.4,1.4"/>
		<path class="st4" d="M57.2,24.1c-0.6-1.4-2.2-2-3.5-1.3c-0.6,0.3-1.1,0.7-1.3,1.3"/>
		<path class="st5" d="M43.6,14.9c3.5-1.7,7.7-1.9,11.3-0.4"/>
		<path class="st5" d="M57.4,39.3c-6.5,4.2-15.2,2.4-19.4-4.2c-2.9-4.4-3-10.1-0.4-14.7"/>
		<path class="st5" d="M61.2,19.5c2.8,4,3.4,9.2,1.4,13.6"/>
		<path class="st6" d="M61.2,19.5c1.8-1.5,2.5-3.2,2.2-4.6c-0.3-1.1-1.2-2-2.3-2.2c-0.8,0-1.5,0.3-2,0.9c-0.5-0.6-1.2-0.9-1.9-0.9
			h-0.1c-1,0.1-1.8,0.8-2.2,1.8"/>
		<path class="st6" d="M43.6,14.9c-0.4-0.3-0.8-0.5-1.2-0.5c-0.8,0-1.5,0.3-2,0.9c-0.5-0.6-1.2-0.9-1.9-0.9h-0.1
			c-1.1,0.2-2.1,1.1-2.3,2.2c-0.3,1.1,0.3,2.6,1.5,3.9"/>
		<path class="st6" d="M57.4,39.3c0.5,0.4,1.1,0.8,1.7,1.1c3.1-1.6,4.7-4.1,4.3-5.9c-0.2-0.5-0.4-1-0.8-1.4"/>
		<g>
			<path class="st7" d="M80.6,22c-0.3,0-0.5-0.1-0.7-0.3s-0.3-0.4-0.3-0.8c0-0.3,0.1-0.5,0.3-0.7c0.2-0.2,0.5-0.3,0.7-0.3
				c0.3,0,0.5,0.1,0.7,0.3s0.3,0.4,0.3,0.8c0,0.3-0.1,0.6-0.3,0.7C81.1,21.9,80.9,22,80.6,22z M81.6,24.2v6c0,0.4-0.1,0.7-0.3,0.9
				c-0.2,0.2-0.4,0.3-0.8,0.3s-0.6-0.1-0.7-0.3s-0.3-0.5-0.3-0.9v-5.9c0-0.4,0.1-0.7,0.3-0.9s0.4-0.3,0.7-0.3s0.6,0.1,0.8,0.3
				C81.5,23.5,81.6,23.8,81.6,24.2z"/>
			<path class="st7" d="M85.7,24.1v0.2c0.4-0.5,0.8-0.8,1.2-1.1c0.4-0.2,0.9-0.3,1.5-0.3c0.5,0,1,0.1,1.5,0.4c0.4,0.2,0.8,0.6,1,1
				c0.1,0.3,0.2,0.5,0.3,0.8c0,0.3,0.1,0.7,0.1,1.1v3.9c0,0.4-0.1,0.7-0.3,0.9s-0.4,0.3-0.7,0.3c-0.3,0-0.6-0.1-0.8-0.3
				s-0.3-0.5-0.3-0.9v-3.5c0-0.7-0.1-1.2-0.3-1.6c-0.2-0.4-0.6-0.5-1.1-0.5c-0.4,0-0.7,0.1-1,0.3c-0.3,0.2-0.5,0.5-0.7,0.9
				c-0.1,0.3-0.2,0.9-0.2,1.7V30c0,0.4-0.1,0.7-0.3,0.9c-0.2,0.2-0.4,0.3-0.8,0.3c-0.3,0-0.5-0.1-0.7-0.3s-0.3-0.5-0.3-0.9v-6
				c0-0.4,0.1-0.7,0.3-0.9c0.2-0.2,0.4-0.3,0.7-0.3c0.2,0,0.3,0,0.5,0.1c0.1,0.1,0.3,0.2,0.4,0.4C85.6,23.7,85.7,23.9,85.7,24.1z"/>
			<path class="st7" d="M94.2,22c-0.3,0-0.5-0.1-0.7-0.3s-0.3-0.4-0.3-0.8c0-0.3,0.1-0.5,0.3-0.7c0.2-0.2,0.5-0.3,0.7-0.3
				c0.3,0,0.5,0.1,0.7,0.3s0.3,0.4,0.3,0.8c0,0.3-0.1,0.6-0.3,0.7C94.8,21.9,94.5,22,94.2,22z M95.3,24.2v6c0,0.4-0.1,0.7-0.3,0.9
				c-0.2,0.2-0.4,0.3-0.8,0.3s-0.6-0.1-0.7-0.3s-0.3-0.5-0.3-0.9v-5.9c0-0.4,0.1-0.7,0.3-0.9s0.4-0.3,0.7-0.3s0.6,0.1,0.8,0.3
				C95.2,23.5,95.3,23.8,95.3,24.2z"/>
			<path class="st7" d="M103.2,24.1v0.3c0.4-0.5,0.8-0.8,1.2-1.1s0.9-0.3,1.4-0.3c0.6,0,1.2,0.2,1.8,0.5c0.5,0.3,1,0.8,1.3,1.4
				s0.5,1.4,0.5,2.2c0,0.6-0.1,1.2-0.3,1.8c-0.2,0.5-0.4,1-0.7,1.3c-0.3,0.4-0.7,0.6-1.1,0.8s-0.9,0.3-1.4,0.3
				c-0.6,0-1.1-0.1-1.5-0.4s-0.8-0.6-1.2-1V33c0,0.9-0.3,1.4-1,1.4c-0.4,0-0.6-0.1-0.8-0.4s-0.2-0.6-0.2-1v-8.9
				c0-0.4,0.1-0.7,0.3-0.9c0.2-0.2,0.4-0.3,0.7-0.3c0.3,0,0.5,0.1,0.7,0.3C103.1,23.5,103.2,23.8,103.2,24.1z M107.3,27.2
				c0-0.5-0.1-1-0.3-1.4c-0.2-0.4-0.4-0.7-0.7-0.9c-0.3-0.2-0.6-0.3-1-0.3c-0.6,0-1.1,0.2-1.4,0.7c-0.4,0.5-0.6,1.1-0.6,2
				c0,0.8,0.2,1.5,0.6,1.9c0.4,0.5,0.9,0.7,1.5,0.7c0.3,0,0.7-0.1,1-0.3s0.5-0.5,0.7-0.9C107.2,28.2,107.3,27.7,107.3,27.2z"/>
			<path class="st7" d="M118.8,27.2c0,0.6-0.1,1.2-0.3,1.7c-0.2,0.5-0.5,1-0.8,1.3c-0.4,0.4-0.8,0.7-1.3,0.9s-1.1,0.3-1.7,0.3
				s-1.2-0.1-1.7-0.3s-0.9-0.5-1.3-0.9s-0.6-0.8-0.8-1.3c-0.2-0.5-0.3-1.1-0.3-1.7s0.1-1.2,0.3-1.7c0.2-0.5,0.5-1,0.8-1.3
				c0.4-0.4,0.8-0.7,1.3-0.9c0.5-0.2,1.1-0.3,1.7-0.3s1.2,0.1,1.7,0.3c0.5,0.2,0.9,0.5,1.3,0.9s0.6,0.8,0.8,1.3
				S118.8,26.6,118.8,27.2z M116.7,27.2c0-0.8-0.2-1.5-0.6-2s-0.9-0.7-1.5-0.7c-0.4,0-0.8,0.1-1.1,0.3c-0.3,0.2-0.5,0.5-0.7,0.9
				s-0.3,0.9-0.3,1.4s0.1,1,0.2,1.4s0.4,0.7,0.7,0.9c0.3,0.2,0.7,0.3,1.1,0.3c0.6,0,1.1-0.2,1.5-0.7S116.7,28,116.7,27.2z"/>
			<path class="st7" d="M122.5,28.4v1.7c0,0.4-0.1,0.7-0.3,0.9c-0.2,0.2-0.4,0.3-0.8,0.3c-0.3,0-0.5-0.1-0.7-0.3s-0.3-0.5-0.3-0.9
				v-5.8c0-0.9,0.3-1.4,1-1.4c0.3,0,0.6,0.1,0.7,0.3s0.2,0.5,0.3,1c0.2-0.4,0.5-0.7,0.8-1s0.6-0.3,1-0.3s0.9,0.1,1.3,0.3
				c0.4,0.2,0.6,0.5,0.6,0.9c0,0.3-0.1,0.5-0.3,0.6c-0.2,0.2-0.4,0.2-0.6,0.2c-0.1,0-0.3,0-0.6-0.1c-0.3-0.1-0.5-0.1-0.8-0.1
				s-0.6,0.1-0.7,0.2s-0.3,0.4-0.4,0.7c-0.1,0.3-0.2,0.7-0.2,1.1C122.5,27.3,122.5,27.8,122.5,28.4z"/>
			<path class="st7" d="M127.5,23.2h0.2V22c0-0.3,0-0.6,0-0.8c0-0.2,0.1-0.4,0.1-0.5c0.1-0.1,0.2-0.3,0.3-0.3
				c0.2-0.1,0.3-0.1,0.5-0.1c0.3,0,0.5,0.1,0.7,0.3c0.1,0.1,0.2,0.3,0.3,0.5c0,0.2,0.1,0.5,0.1,0.8v1.4h0.8c0.3,0,0.5,0.1,0.7,0.2
				s0.2,0.3,0.2,0.5c0,0.3-0.1,0.5-0.3,0.6s-0.5,0.2-0.9,0.2h-0.4v3.8c0,0.3,0,0.6,0,0.7c0,0.2,0.1,0.3,0.2,0.4
				c0.1,0.1,0.3,0.2,0.5,0.2c0.1,0,0.3,0,0.5-0.1c0.2,0,0.4-0.1,0.5-0.1c0.2,0,0.3,0.1,0.5,0.2c0.1,0.1,0.2,0.3,0.2,0.5
				c0,0.3-0.2,0.6-0.5,0.8c-0.4,0.2-0.9,0.3-1.6,0.3c-0.6,0-1.1-0.1-1.5-0.3c-0.3-0.2-0.6-0.5-0.7-0.9s-0.2-0.9-0.2-1.5v-4h-0.3
				c-0.3,0-0.5-0.1-0.7-0.2s-0.2-0.3-0.2-0.5s0.1-0.4,0.2-0.5C127,23.2,127.2,23.2,127.5,23.2z"/>
			<path class="st7" d="M140.7,27.2c0,0.6-0.1,1.2-0.3,1.7s-0.5,1-0.8,1.3c-0.4,0.4-0.8,0.7-1.3,0.9s-1.1,0.3-1.7,0.3
				c-0.6,0-1.2-0.1-1.7-0.3s-0.9-0.5-1.3-0.9c-0.4-0.4-0.6-0.8-0.8-1.3s-0.3-1.1-0.3-1.7s0.1-1.2,0.3-1.7s0.5-1,0.8-1.3
				c0.4-0.4,0.8-0.7,1.3-0.9c0.5-0.2,1.1-0.3,1.7-0.3c0.6,0,1.2,0.1,1.7,0.3c0.5,0.2,1,0.5,1.3,0.9c0.4,0.4,0.6,0.8,0.8,1.3
				C140.6,26,140.7,26.6,140.7,27.2z M138.6,27.2c0-0.8-0.2-1.5-0.6-2c-0.4-0.5-0.9-0.7-1.5-0.7c-0.4,0-0.8,0.1-1.1,0.3
				c-0.3,0.2-0.5,0.5-0.7,0.9s-0.2,0.9-0.2,1.4s0.1,1,0.2,1.4c0.2,0.4,0.4,0.7,0.7,0.9s0.7,0.3,1.1,0.3c0.6,0,1.1-0.2,1.5-0.7
				C138.4,28.7,138.6,28,138.6,27.2z"/>
			<path class="st7" d="M142.2,23.2h0.5v-0.6c0-0.6,0.1-1.2,0.2-1.5c0.2-0.4,0.4-0.7,0.8-0.8s0.9-0.3,1.6-0.3c1.2,0,1.8,0.3,1.8,0.9
				c0,0.2-0.1,0.4-0.2,0.5c-0.1,0.1-0.3,0.2-0.4,0.2c-0.1,0-0.2,0-0.4,0s-0.4,0-0.5,0c-0.4,0-0.6,0.1-0.7,0.3
				c-0.1,0.2-0.2,0.5-0.2,0.9v0.5h0.5c0.8,0,1.2,0.2,1.2,0.7c0,0.3-0.1,0.6-0.3,0.6c-0.2,0.1-0.5,0.1-0.9,0.1h-0.5v5.5
				c0,0.4-0.1,0.7-0.3,0.9s-0.4,0.3-0.8,0.3c-0.3,0-0.5-0.1-0.7-0.3s-0.3-0.5-0.3-0.9v-5.5H142c-0.3,0-0.5-0.1-0.7-0.2
				S141,24.2,141,24C141.1,23.4,141.5,23.2,142.2,23.2z"/>
			<path class="st7" d="M155.1,27.2c0,0.6-0.1,1.2-0.3,1.7s-0.5,1-0.8,1.3c-0.4,0.4-0.8,0.7-1.3,0.9s-1.1,0.3-1.7,0.3
				c-0.6,0-1.2-0.1-1.7-0.3s-0.9-0.5-1.3-0.9c-0.4-0.4-0.6-0.8-0.8-1.3s-0.3-1.1-0.3-1.7s0.1-1.2,0.3-1.7s0.5-1,0.8-1.3
				c0.4-0.4,0.8-0.7,1.3-0.9c0.5-0.2,1.1-0.3,1.7-0.3c0.6,0,1.2,0.1,1.7,0.3c0.5,0.2,1,0.5,1.3,0.9c0.4,0.4,0.6,0.8,0.8,1.3
				S155.1,26.6,155.1,27.2z M153,27.2c0-0.8-0.2-1.5-0.6-2c-0.4-0.5-0.9-0.7-1.5-0.7c-0.4,0-0.8,0.1-1.1,0.3
				c-0.3,0.2-0.5,0.5-0.7,0.9s-0.2,0.9-0.2,1.4s0.1,1,0.2,1.4c0.2,0.4,0.4,0.7,0.7,0.9s0.7,0.3,1.1,0.3c0.6,0,1.1-0.2,1.5-0.7
				C152.8,28.7,153,28,153,27.2z"/>
			<path class="st7" d="M156.7,30.2v-9c0-0.4,0.1-0.7,0.3-0.9c0.2-0.2,0.4-0.3,0.7-0.3s0.6,0.1,0.8,0.3s0.3,0.5,0.3,0.9v9
				c0,0.4-0.1,0.7-0.3,0.9s-0.4,0.3-0.8,0.3c-0.3,0-0.6-0.1-0.7-0.3C156.8,30.9,156.7,30.6,156.7,30.2z"/>
			<path class="st7" d="M162,22c-0.3,0-0.5-0.1-0.7-0.3s-0.3-0.4-0.3-0.8c0-0.3,0.1-0.5,0.3-0.7s0.5-0.3,0.7-0.3
				c0.3,0,0.5,0.1,0.7,0.3c0.2,0.2,0.3,0.4,0.3,0.8c0,0.3-0.1,0.6-0.3,0.7C162.5,21.9,162.2,22,162,22z M163,24.2v6
				c0,0.4-0.1,0.7-0.3,0.9s-0.4,0.3-0.8,0.3s-0.6-0.1-0.7-0.3c-0.2-0.2-0.3-0.5-0.3-0.9v-5.9c0-0.4,0.1-0.7,0.3-0.9
				c0.2-0.2,0.4-0.3,0.7-0.3s0.6,0.1,0.8,0.3S163,23.8,163,24.2z"/>
			<path class="st7" d="M172.9,27.2c0,0.6-0.1,1.2-0.3,1.7s-0.5,1-0.8,1.3c-0.4,0.4-0.8,0.7-1.3,0.9s-1.1,0.3-1.7,0.3
				c-0.6,0-1.2-0.1-1.7-0.3s-0.9-0.5-1.3-0.9c-0.4-0.4-0.6-0.8-0.8-1.3s-0.3-1.1-0.3-1.7s0.1-1.2,0.3-1.7s0.5-1,0.8-1.3
				c0.4-0.4,0.8-0.7,1.3-0.9c0.5-0.2,1.1-0.3,1.7-0.3c0.6,0,1.2,0.1,1.7,0.3c0.5,0.2,1,0.5,1.3,0.9c0.4,0.4,0.6,0.8,0.8,1.3
				C172.8,26,172.9,26.6,172.9,27.2z M170.8,27.2c0-0.8-0.2-1.5-0.6-2c-0.4-0.5-0.9-0.7-1.5-0.7c-0.4,0-0.8,0.1-1.1,0.3
				c-0.3,0.2-0.5,0.5-0.7,0.9s-0.2,0.9-0.2,1.4s0.1,1,0.2,1.4c0.2,0.4,0.4,0.7,0.7,0.9s0.7,0.3,1.1,0.3c0.6,0,1.1-0.2,1.5-0.7
				C170.6,28.7,170.8,28,170.8,27.2z"/>
			<path class="st7" d="M185.1,28.7c0,0.6-0.1,1.1-0.4,1.5c-0.3,0.4-0.7,0.7-1.2,0.9s-1.2,0.3-2,0.3c-0.7,0-1.4-0.1-1.9-0.3
				s-0.9-0.5-1.2-0.9c-0.3-0.3-0.4-0.7-0.4-1c0-0.2,0.1-0.4,0.2-0.6s0.4-0.2,0.6-0.2c0.2,0,0.4,0.1,0.5,0.2c0.1,0.1,0.2,0.3,0.3,0.4
				c0.2,0.4,0.5,0.6,0.8,0.8s0.7,0.3,1.2,0.3c0.4,0,0.8-0.1,1-0.3c0.3-0.2,0.4-0.4,0.4-0.6c0-0.4-0.1-0.6-0.4-0.8
				c-0.3-0.2-0.7-0.3-1.4-0.5s-1.3-0.4-1.7-0.6s-0.8-0.5-1.1-0.8s-0.4-0.7-0.4-1.2c0-0.4,0.1-0.8,0.4-1.2c0.2-0.4,0.6-0.7,1.1-0.9
				c0.5-0.2,1.1-0.3,1.8-0.3c0.5,0,1,0.1,1.4,0.2s0.8,0.3,1.1,0.4s0.5,0.4,0.7,0.6c0.1,0.2,0.2,0.5,0.2,0.7s-0.1,0.4-0.2,0.6
				c-0.2,0.2-0.4,0.2-0.7,0.2c-0.2,0-0.4-0.1-0.5-0.2s-0.3-0.3-0.5-0.5s-0.3-0.4-0.6-0.5c-0.2-0.1-0.5-0.2-0.9-0.2s-0.7,0.1-0.9,0.2
				c-0.2,0.2-0.4,0.4-0.4,0.6s0.1,0.4,0.3,0.5s0.4,0.3,0.7,0.3c0.3,0.1,0.7,0.2,1.3,0.3c0.6,0.2,1.2,0.3,1.6,0.6
				c0.4,0.2,0.7,0.5,0.9,0.8C185,28,185.1,28.3,185.1,28.7z"/>
			<path class="st7" d="M192.1,30.3c-0.5,0.4-1,0.7-1.5,0.9s-1,0.3-1.6,0.3c-0.5,0-1-0.1-1.4-0.3s-0.7-0.5-0.9-0.9s-0.3-0.8-0.3-1.2
				c0-0.6,0.2-1.1,0.5-1.5s0.9-0.7,1.5-0.8c0.1,0,0.5-0.1,1-0.2s1-0.2,1.3-0.3c0.4-0.1,0.8-0.2,1.2-0.3c0-0.5-0.1-0.9-0.3-1.2
				c-0.2-0.3-0.6-0.4-1.2-0.4c-0.5,0-0.9,0.1-1.2,0.2s-0.5,0.4-0.7,0.7c-0.2,0.3-0.3,0.5-0.4,0.6c-0.1,0.1-0.2,0.1-0.5,0.1
				c-0.2,0-0.4-0.1-0.6-0.2c-0.2-0.1-0.3-0.3-0.3-0.6c0-0.4,0.1-0.7,0.4-1.1c0.3-0.3,0.7-0.6,1.2-0.9c0.5-0.2,1.2-0.3,2-0.3
				c0.9,0,1.6,0.1,2.1,0.3c0.5,0.2,0.9,0.6,1.1,1c0.2,0.5,0.3,1.1,0.3,1.9c0,0.5,0,0.9,0,1.2c0,0.3,0,0.7,0,1.1s0.1,0.8,0.2,1.2
				c0.1,0.4,0.2,0.7,0.2,0.8c0,0.2-0.1,0.4-0.3,0.6s-0.4,0.3-0.7,0.3c-0.2,0-0.4-0.1-0.6-0.3C192.5,30.9,192.3,30.6,192.1,30.3z
				 M191.9,27.2c-0.3,0.1-0.7,0.2-1.3,0.4c-0.6,0.1-1,0.2-1.2,0.3c-0.2,0.1-0.4,0.2-0.6,0.3c-0.2,0.2-0.3,0.4-0.3,0.7
				s0.1,0.6,0.4,0.8c0.2,0.2,0.5,0.3,0.9,0.3s0.8-0.1,1.1-0.3s0.6-0.4,0.8-0.7s0.3-0.8,0.3-1.5L191.9,27.2L191.9,27.2z"/>
			<path class="st7" d="M197.8,31.7l0.2-0.5l-2.6-6.4c-0.2-0.4-0.2-0.6-0.2-0.8c0-0.2,0-0.3,0.1-0.5s0.2-0.3,0.4-0.4
				s0.3-0.1,0.5-0.1c0.3,0,0.5,0.1,0.7,0.3c0.2,0.2,0.3,0.5,0.4,0.8l1.8,5.1l1.7-4.7c0.1-0.4,0.3-0.7,0.4-0.9s0.2-0.4,0.3-0.4
				s0.3-0.1,0.5-0.1s0.3,0,0.5,0.1c0.1,0.1,0.3,0.2,0.3,0.3c0.1,0.1,0.1,0.3,0.1,0.4s-0.1,0.2-0.1,0.4c0,0.2-0.1,0.4-0.2,0.5
				l-2.7,7.1c-0.2,0.6-0.5,1.1-0.7,1.5s-0.5,0.6-0.9,0.8s-0.9,0.3-1.5,0.3s-1.1-0.1-1.4-0.2c-0.3-0.1-0.5-0.4-0.5-0.7
				c0-0.2,0.1-0.4,0.2-0.6c0.1-0.1,0.4-0.2,0.6-0.2c0.1,0,0.2,0,0.3,0s0.2,0,0.3,0c0.2,0,0.4,0,0.6-0.1c0.1-0.1,0.3-0.2,0.4-0.4
				C197.5,32.3,197.7,32,197.8,31.7z"/>
			<path class="st7" d="M209.3,30.3c-0.5,0.4-1,0.7-1.5,0.9s-1,0.3-1.6,0.3c-0.5,0-1-0.1-1.4-0.3s-0.7-0.5-0.9-0.9s-0.3-0.8-0.3-1.2
				c0-0.6,0.2-1.1,0.5-1.5s0.9-0.7,1.5-0.8c0.1,0,0.5-0.1,1-0.2s1-0.2,1.3-0.3c0.4-0.1,0.8-0.2,1.2-0.3c0-0.5-0.1-0.9-0.3-1.2
				c-0.2-0.3-0.6-0.4-1.2-0.4c-0.5,0-0.9,0.1-1.2,0.2s-0.5,0.4-0.7,0.7c-0.2,0.3-0.3,0.5-0.4,0.6c-0.1,0.1-0.2,0.1-0.5,0.1
				c-0.2,0-0.4-0.1-0.6-0.2c-0.2-0.1-0.3-0.3-0.3-0.6c0-0.4,0.1-0.7,0.4-1.1c0.3-0.3,0.7-0.6,1.2-0.9c0.5-0.2,1.2-0.3,2-0.3
				c0.9,0,1.6,0.1,2.1,0.3c0.5,0.2,0.9,0.6,1.1,1c0.2,0.5,0.3,1.1,0.3,1.9c0,0.5,0,0.9,0,1.2c0,0.3,0,0.7,0,1.1s0.1,0.8,0.2,1.2
				c0.1,0.4,0.2,0.7,0.2,0.8c0,0.2-0.1,0.4-0.3,0.6s-0.4,0.3-0.7,0.3c-0.2,0-0.4-0.1-0.6-0.3C209.8,30.9,209.6,30.6,209.3,30.3z
				 M209.2,27.2c-0.3,0.1-0.7,0.2-1.3,0.4c-0.6,0.1-1,0.2-1.2,0.3c-0.2,0.1-0.4,0.2-0.6,0.3c-0.2,0.2-0.3,0.4-0.3,0.7
				s0.1,0.6,0.4,0.8c0.2,0.2,0.5,0.3,0.9,0.3s0.8-0.1,1.1-0.3s0.6-0.4,0.8-0.7s0.3-0.8,0.3-1.5L209.2,27.2L209.2,27.2z"/>
			<path class="st7" d="M217.9,26.4l-0.2-3.6c0-0.7-0.1-1.2-0.1-1.5c0-0.4,0.1-0.7,0.3-1c0.2-0.2,0.5-0.4,0.9-0.4s0.7,0.2,0.9,0.5
				c0.1,0.3,0.2,0.7,0.2,1.3c0,0.3,0,0.7-0.1,1l-0.3,3.7c0,0.4-0.1,0.8-0.2,1c-0.1,0.2-0.3,0.4-0.6,0.4s-0.5-0.1-0.6-0.3
				S218,26.9,217.9,26.4z M218.8,31.4c-0.3,0-0.6-0.1-0.8-0.3s-0.3-0.5-0.3-0.8s0.1-0.6,0.3-0.8s0.5-0.3,0.8-0.3s0.6,0.1,0.8,0.3
				s0.3,0.5,0.3,0.8c0,0.4-0.1,0.6-0.3,0.8C219.3,31.3,219.1,31.4,218.8,31.4z"/>
			<path class="st7" d="M223.1,26.4l-0.2-3.6c0-0.7-0.1-1.2-0.1-1.5c0-0.4,0.1-0.7,0.3-1c0.2-0.2,0.5-0.4,0.9-0.4s0.7,0.2,0.9,0.5
				c0.1,0.3,0.2,0.7,0.2,1.3c0,0.3,0,0.7-0.1,1l-0.3,3.7c0,0.4-0.1,0.8-0.2,1c-0.1,0.2-0.3,0.4-0.6,0.4s-0.5-0.1-0.6-0.3
				S223.2,26.9,223.1,26.4z M223.9,31.4c-0.3,0-0.6-0.1-0.8-0.3s-0.3-0.5-0.3-0.8s0.1-0.6,0.3-0.8s0.5-0.3,0.8-0.3s0.6,0.1,0.8,0.3
				s0.3,0.5,0.3,0.8c0,0.4-0.1,0.6-0.3,0.8C224.5,31.3,224.3,31.4,223.9,31.4z"/>
		</g>
	</g>
</g>
</svg>
