<?xml version="1.0" encoding="utf-8"?>
<!-- Generator: Adobe Illustrator 24.3.0, SVG Export Plug-In . SVG Version: 6.00 Build 0)  -->
<svg version="1.1" id="Layer_1" xmlns="http://www.w3.org/2000/svg" xmlns:xlink="http://www.w3.org/1999/xlink" x="0px" y="0px"
	 viewBox="0 0 249 68" style="enable-background:new 0 0 249 68;" xml:space="preserve">
<style type="text/css">
	.st0{fill:#FFFFFF;}
	.st1{fill:#FEC73C;}
	.st2{fill:#F03A16;}
	.st3{fill:none;stroke:#000000;stroke-width:1.68;stroke-linecap:round;stroke-miterlimit:10;}
	.st4{fill:none;stroke:#000000;stroke-width:2;stroke-linecap:round;stroke-linejoin:round;}
	.st5{fill:none;stroke:#000000;stroke-width:2;stroke-miterlimit:10;}
	.st6{fill:#241F42;}
</style>
<g id="Layer_1-2">
	<path class="st0" d="M227.8,0H21.2C9.5,0,0,9,0,20v14c0,11,9.5,20,21.2,20h164.2L197,68l12.7-14h18c11.7,0,21.2-9,21.2-20V20
		C249,9,239.5,0,227.8,0z"/>
	<circle class="st1" cx="50" cy="26.8" r="13.5"/>
	<path class="st2" d="M55.4,32.3c0.8,1,1.5,2,2.1,3.1c0.4,0.9,0.7,1.9,0.8,2.8c0,0.7-0.3,1.3-0.8,1.8c-0.6,0.4-1.4,0.4-2,0
		c-0.4-0.2-0.9-0.5-1.6-2.2c-0.6-1.3-1-2.7-1.2-4.2L55.4,32.3z"/>
	<path class="st3" d="M47.3,23.8c-0.6-1.4-2.2-2-3.5-1.4c-0.6,0.3-1.1,0.8-1.4,1.4"/>
	<path class="st3" d="M57,23.8c-0.6-1.4-2.2-2-3.5-1.4c-0.6,0.3-1.1,0.8-1.4,1.4"/>
	<path class="st4" d="M42.5,30.8c1.6,2.2,4.1,3.6,6.9,3.8c3.3,0.1,6.4-1.6,8.1-4.4"/>
	<path class="st5" d="M55.1,39.9c0.2,0.2,0.4,0.3,0.6,0.5c0.6,0.4,1.4,0.4,2,0c0.5-0.5,0.8-1.1,0.8-1.8c0-0.2,0-0.4,0-0.5
		c6.2-4.7,7.3-13.5,2.7-19.6S47.7,11,41.5,15.7s-7.3,13.5-2.7,19.6C42.6,40.3,49.3,42.1,55.1,39.9z"/>
</g>
<g>
	<path class="st6" d="M91.8,28.8c0,0.6-0.1,1.1-0.4,1.6c-0.3,0.4-0.7,0.8-1.3,1c-0.6,0.2-1.3,0.3-2.1,0.3c-0.8,0-1.5-0.1-2-0.4
		c-0.6-0.2-1-0.5-1.3-0.9s-0.4-0.7-0.4-1.1c0-0.2,0.1-0.5,0.3-0.6c0.2-0.2,0.4-0.3,0.7-0.3c0.2,0,0.4,0.1,0.5,0.2s0.2,0.3,0.4,0.5
		c0.2,0.4,0.5,0.7,0.8,0.9s0.7,0.3,1.3,0.3c0.4,0,0.8-0.1,1.1-0.3c0.3-0.2,0.4-0.4,0.4-0.7c0-0.4-0.1-0.7-0.4-0.9s-0.8-0.3-1.5-0.5
		c-0.8-0.2-1.4-0.4-1.9-0.6s-0.9-0.5-1.2-0.8c-0.3-0.3-0.4-0.8-0.4-1.3c0-0.4,0.1-0.9,0.4-1.3s0.7-0.7,1.2-0.9
		c0.5-0.2,1.1-0.4,1.9-0.4c0.6,0,1.1,0.1,1.5,0.2s0.8,0.3,1.1,0.5c0.3,0.2,0.5,0.4,0.7,0.7s0.2,0.5,0.2,0.7c0,0.3-0.1,0.5-0.3,0.6
		c-0.2,0.2-0.4,0.2-0.7,0.2c-0.2,0-0.4-0.1-0.6-0.2s-0.3-0.3-0.5-0.6c-0.2-0.2-0.4-0.4-0.6-0.5S88.2,24,87.8,24s-0.7,0.1-1,0.3
		c-0.3,0.2-0.4,0.4-0.4,0.6s0.1,0.4,0.3,0.6c0.2,0.1,0.5,0.3,0.8,0.4s0.8,0.2,1.4,0.4c0.7,0.2,1.2,0.4,1.7,0.6
		c0.4,0.2,0.8,0.5,1,0.8C91.7,28,91.8,28.4,91.8,28.8z"/>
	<path class="st6" d="M99.9,27.7h-4.3c0,0.5,0.1,0.9,0.3,1.3c0.2,0.4,0.5,0.7,0.8,0.9s0.7,0.3,1.1,0.3c0.3,0,0.5,0,0.7-0.1
		s0.4-0.2,0.6-0.3s0.4-0.3,0.6-0.4c0.2-0.2,0.4-0.4,0.7-0.6c0.1-0.1,0.3-0.1,0.5-0.1s0.4,0.1,0.6,0.2c0.1,0.1,0.2,0.3,0.2,0.5
		s-0.1,0.4-0.2,0.7c-0.2,0.3-0.4,0.5-0.7,0.8c-0.3,0.2-0.7,0.5-1.2,0.6c-0.5,0.2-1,0.2-1.7,0.2c-1.4,0-2.5-0.4-3.3-1.2
		s-1.2-1.9-1.2-3.3c0-0.7,0.1-1.3,0.3-1.8c0.2-0.6,0.5-1,0.9-1.4s0.8-0.7,1.4-0.9c0.5-0.2,1.2-0.3,1.8-0.3c0.9,0,1.6,0.2,2.2,0.5
		c0.6,0.4,1.1,0.8,1.4,1.4s0.5,1.2,0.5,1.8c0,0.6-0.2,0.9-0.5,1.1C100.9,27.7,100.5,27.7,99.9,27.7z M95.6,26.5h4
		c-0.1-0.8-0.3-1.3-0.6-1.7c-0.4-0.4-0.8-0.6-1.4-0.6s-1,0.2-1.4,0.6S95.7,25.7,95.6,26.5z"/>
	<path class="st6" d="M103.6,30.4v-9.6c0-0.4,0.1-0.8,0.3-1s0.5-0.3,0.8-0.3s0.6,0.1,0.8,0.3s0.3,0.6,0.3,1v9.6c0,0.5-0.1,0.8-0.3,1
		c-0.2,0.2-0.5,0.3-0.8,0.3s-0.6-0.1-0.8-0.3C103.7,31.1,103.6,30.8,103.6,30.4z"/>
	<path class="st6" d="M113.7,30.5c-0.5,0.4-1.1,0.7-1.6,0.9s-1.1,0.3-1.7,0.3s-1.1-0.1-1.5-0.3s-0.8-0.5-1-0.9s-0.3-0.8-0.3-1.3
		c0-0.6,0.2-1.1,0.6-1.6s0.9-0.7,1.6-0.9c0.1,0,0.5-0.1,1-0.2c0.6-0.1,1-0.2,1.4-0.3c0.4-0.1,0.8-0.2,1.3-0.3c0-0.6-0.1-1-0.4-1.3
		c-0.2-0.3-0.6-0.4-1.3-0.4c-0.6,0-1,0.1-1.3,0.2c-0.3,0.2-0.5,0.4-0.7,0.7c-0.2,0.3-0.3,0.5-0.4,0.6s-0.3,0.2-0.5,0.2
		s-0.5-0.1-0.6-0.2c-0.2-0.2-0.3-0.4-0.3-0.6c0-0.4,0.1-0.8,0.4-1.1s0.7-0.7,1.3-0.9c0.6-0.2,1.3-0.4,2.2-0.4c1,0,1.7,0.1,2.3,0.3
		c0.6,0.2,1,0.6,1.2,1.1s0.3,1.2,0.3,2c0,0.5,0,1,0,1.3c0,0.4,0,0.8,0,1.2c0,0.4,0.1,0.9,0.2,1.3c0.1,0.5,0.2,0.7,0.2,0.9
		s-0.1,0.4-0.3,0.6c-0.2,0.2-0.5,0.3-0.7,0.3s-0.5-0.1-0.7-0.3S114,30.9,113.7,30.5z M113.6,27.3c-0.3,0.1-0.8,0.2-1.4,0.4
		c-0.6,0.1-1,0.2-1.3,0.3c-0.2,0.1-0.5,0.2-0.7,0.4s-0.3,0.4-0.3,0.8c0,0.3,0.1,0.6,0.4,0.9c0.3,0.2,0.6,0.4,1,0.4s0.8-0.1,1.2-0.3
		c0.4-0.2,0.6-0.4,0.8-0.7c0.2-0.3,0.3-0.9,0.3-1.7V27.3z"/>
	<path class="st6" d="M125.4,27.4v3c0,0.5-0.1,0.8-0.3,1c-0.2,0.2-0.5,0.3-0.8,0.3s-0.6-0.1-0.8-0.3c-0.2-0.2-0.3-0.6-0.3-1v-3.5
		c0-0.6,0-1-0.1-1.3s-0.1-0.6-0.3-0.8s-0.4-0.3-0.8-0.3c-0.7,0-1.2,0.2-1.4,0.7c-0.2,0.5-0.3,1.2-0.3,2.1v3c0,0.5-0.1,0.8-0.3,1
		c-0.2,0.2-0.5,0.4-0.8,0.4s-0.6-0.1-0.8-0.4c-0.2-0.2-0.3-0.6-0.3-1V24c0-0.4,0.1-0.7,0.3-1s0.4-0.3,0.8-0.3c0.3,0,0.6,0.1,0.8,0.3
		s0.3,0.5,0.3,0.8V24c0.4-0.5,0.8-0.8,1.2-1s0.9-0.3,1.5-0.3s1,0.1,1.4,0.3c0.4,0.2,0.7,0.6,1,1c0.4-0.5,0.8-0.8,1.2-1
		c0.4-0.2,0.9-0.3,1.4-0.3c0.6,0,1.1,0.1,1.6,0.4c0.4,0.2,0.8,0.6,1,1s0.3,1,0.3,1.9v4.3c0,0.5-0.1,0.8-0.3,1s-0.5,0.3-0.8,0.3
		s-0.6-0.1-0.8-0.4s-0.3-0.6-0.3-1v-3.7c0-0.5,0-0.9-0.1-1.1c0-0.3-0.2-0.5-0.3-0.7s-0.5-0.3-0.8-0.3s-0.6,0.1-0.8,0.3
		c-0.3,0.2-0.5,0.4-0.6,0.7C125.5,25.8,125.4,26.4,125.4,27.4z"/>
	<path class="st6" d="M138.4,30.5c-0.5,0.4-1.1,0.7-1.6,0.9s-1.1,0.3-1.7,0.3c-0.6,0-1.1-0.1-1.5-0.3s-0.8-0.5-1-0.9
		s-0.3-0.8-0.3-1.3c0-0.6,0.2-1.1,0.6-1.6s0.9-0.7,1.6-0.9c0.1,0,0.5-0.1,1-0.2c0.6-0.1,1-0.2,1.4-0.3s0.8-0.2,1.3-0.3
		c0-0.6-0.1-1-0.4-1.3c-0.2-0.3-0.6-0.4-1.3-0.4c-0.6,0-1,0.1-1.3,0.2c-0.3,0.2-0.5,0.4-0.7,0.7c-0.2,0.3-0.3,0.5-0.4,0.6
		c-0.1,0.1-0.3,0.2-0.5,0.2s-0.5-0.1-0.6-0.2c-0.2-0.2-0.3-0.4-0.3-0.6c0-0.4,0.1-0.8,0.4-1.1s0.7-0.7,1.3-0.9
		c0.6-0.2,1.3-0.4,2.2-0.4c1,0,1.7,0.1,2.3,0.3c0.6,0.2,1,0.6,1.2,1.1s0.3,1.2,0.3,2c0,0.5,0,1,0,1.3c0,0.4,0,0.8,0,1.2
		c0,0.4,0.1,0.9,0.2,1.3c0.1,0.5,0.2,0.7,0.2,0.9s-0.1,0.4-0.3,0.6c-0.2,0.2-0.5,0.3-0.7,0.3s-0.5-0.1-0.7-0.3
		C138.8,31.2,138.6,30.9,138.4,30.5z M138.2,27.3c-0.3,0.1-0.8,0.2-1.4,0.4c-0.6,0.1-1,0.2-1.3,0.3c-0.2,0.1-0.5,0.2-0.7,0.4
		s-0.3,0.4-0.3,0.8c0,0.3,0.1,0.6,0.4,0.9c0.3,0.2,0.6,0.4,1,0.4s0.8-0.1,1.2-0.3s0.6-0.4,0.8-0.7s0.3-0.9,0.3-1.7V27.3z"/>
	<path class="st6" d="M142.3,22.9h0.2v-1.3c0-0.4,0-0.6,0-0.8c0-0.2,0.1-0.4,0.2-0.5c0.1-0.2,0.2-0.3,0.4-0.4s0.3-0.1,0.5-0.1
		c0.3,0,0.5,0.1,0.8,0.3c0.2,0.1,0.2,0.3,0.3,0.5c0,0.2,0.1,0.5,0.1,0.9V23h0.8c0.3,0,0.6,0.1,0.7,0.2c0.2,0.1,0.2,0.3,0.2,0.6
		c0,0.3-0.1,0.5-0.4,0.6s-0.6,0.2-1,0.2h-0.4v4.1c0,0.3,0,0.6,0,0.8s0.1,0.3,0.2,0.5c0.1,0.1,0.3,0.2,0.5,0.2c0.1,0,0.3,0,0.5-0.1
		c0.2,0,0.4-0.1,0.5-0.1c0.2,0,0.3,0.1,0.5,0.2s0.2,0.3,0.2,0.5c0,0.4-0.2,0.6-0.6,0.8c-0.4,0.2-1,0.3-1.7,0.3s-1.2-0.1-1.6-0.3
		c-0.4-0.2-0.6-0.6-0.7-1c-0.1-0.4-0.2-1-0.2-1.7v-4.3H142c-0.3,0-0.6-0.1-0.7-0.2c-0.2-0.2-0.3-0.3-0.3-0.6c0-0.2,0.1-0.4,0.3-0.6
		C141.8,23,142,22.9,142.3,22.9z"/>
	<path class="st6" d="M158.4,30.4v-0.2c-0.3,0.3-0.6,0.6-0.9,0.8s-0.6,0.4-0.9,0.5c-0.3,0.1-0.7,0.2-1.1,0.2c-0.5,0-1-0.1-1.5-0.3
		s-0.8-0.5-1.2-1c-0.3-0.4-0.6-0.9-0.8-1.5c-0.2-0.6-0.3-1.2-0.3-1.8c0-1.4,0.3-2.5,1-3.2c0.7-0.8,1.6-1.2,2.7-1.2
		c0.6,0,1.2,0.1,1.6,0.3c0.4,0.2,0.9,0.6,1.3,1v-3.3c0-0.5,0.1-0.8,0.3-1s0.4-0.3,0.8-0.3s0.6,0.1,0.8,0.3c0.2,0.2,0.3,0.5,0.3,0.9
		v9.8c0,0.4-0.1,0.7-0.3,1c-0.2,0.2-0.4,0.3-0.8,0.3c-0.3,0-0.6-0.1-0.8-0.3C158.5,31.2,158.4,30.9,158.4,30.4z M154,27.2
		c0,0.6,0.1,1.1,0.3,1.5c0.2,0.4,0.4,0.7,0.8,1c0.3,0.2,0.7,0.3,1.1,0.3c0.4,0,0.7-0.1,1.1-0.3s0.6-0.5,0.8-0.9s0.3-0.9,0.3-1.6
		c0-0.6-0.1-1.1-0.3-1.5s-0.5-0.8-0.8-1s-0.7-0.3-1.1-0.3c-0.4,0-0.8,0.1-1.1,0.3c-0.3,0.2-0.6,0.6-0.7,1
		C154.1,26.1,154,26.6,154,27.2z"/>
	<path class="st6" d="M168.3,30.5c-0.5,0.4-1.1,0.7-1.6,0.9s-1.1,0.3-1.7,0.3c-0.6,0-1.1-0.1-1.5-0.3s-0.8-0.5-1-0.9
		s-0.3-0.8-0.3-1.3c0-0.6,0.2-1.1,0.6-1.6s0.9-0.7,1.6-0.9c0.1,0,0.5-0.1,1-0.2c0.6-0.1,1-0.2,1.4-0.3s0.8-0.2,1.3-0.3
		c0-0.6-0.1-1-0.4-1.3c-0.2-0.3-0.6-0.4-1.3-0.4c-0.6,0-1,0.1-1.3,0.2c-0.3,0.2-0.5,0.4-0.7,0.7c-0.2,0.3-0.3,0.5-0.4,0.6
		c-0.1,0.1-0.3,0.2-0.5,0.2s-0.5-0.1-0.6-0.2c-0.2-0.2-0.3-0.4-0.3-0.6c0-0.4,0.1-0.8,0.4-1.1s0.7-0.7,1.3-0.9
		c0.6-0.2,1.3-0.4,2.2-0.4c1,0,1.7,0.1,2.3,0.3c0.6,0.2,1,0.6,1.2,1.1s0.3,1.2,0.3,2c0,0.5,0,1,0,1.3c0,0.4,0,0.8,0,1.2
		c0,0.4,0.1,0.9,0.2,1.3c0.1,0.5,0.2,0.7,0.2,0.9s-0.1,0.4-0.3,0.6c-0.2,0.2-0.5,0.3-0.7,0.3s-0.5-0.1-0.7-0.3
		C168.8,31.2,168.5,30.9,168.3,30.5z M168.1,27.3c-0.3,0.1-0.8,0.2-1.4,0.4c-0.6,0.1-1,0.2-1.3,0.3c-0.2,0.1-0.5,0.2-0.7,0.4
		s-0.3,0.4-0.3,0.8c0,0.3,0.1,0.6,0.4,0.9c0.3,0.2,0.6,0.4,1,0.4s0.8-0.1,1.2-0.3s0.6-0.4,0.8-0.7s0.3-0.9,0.3-1.7V27.3z"/>
	<path class="st6" d="M172.3,22.9h0.2v-1.3c0-0.4,0-0.6,0-0.8c0-0.2,0.1-0.4,0.2-0.5c0.1-0.2,0.2-0.3,0.4-0.4s0.3-0.1,0.5-0.1
		c0.3,0,0.5,0.1,0.8,0.3c0.2,0.1,0.2,0.3,0.3,0.5c0,0.2,0.1,0.5,0.1,0.9V23h0.8c0.3,0,0.6,0.1,0.7,0.2c0.2,0.1,0.2,0.3,0.2,0.6
		c0,0.3-0.1,0.5-0.4,0.6s-0.6,0.2-1,0.2h-0.4v4.1c0,0.3,0,0.6,0,0.8s0.1,0.3,0.2,0.5c0.1,0.1,0.3,0.2,0.5,0.2c0.1,0,0.3,0,0.5-0.1
		c0.2,0,0.4-0.1,0.5-0.1c0.2,0,0.3,0.1,0.5,0.2s0.2,0.3,0.2,0.5c0,0.4-0.2,0.6-0.6,0.8c-0.4,0.2-1,0.3-1.7,0.3s-1.2-0.1-1.6-0.3
		c-0.4-0.2-0.6-0.6-0.7-1c-0.1-0.4-0.2-1-0.2-1.7v-4.3H172c-0.3,0-0.6-0.1-0.7-0.2c-0.2-0.2-0.3-0.3-0.3-0.6c0-0.2,0.1-0.4,0.3-0.6
		C171.7,23,171.9,22.9,172.3,22.9z"/>
	<path class="st6" d="M183.7,30.5c-0.5,0.4-1.1,0.7-1.6,0.9s-1.1,0.3-1.7,0.3c-0.6,0-1.1-0.1-1.5-0.3s-0.8-0.5-1-0.9
		s-0.3-0.8-0.3-1.3c0-0.6,0.2-1.1,0.6-1.6s0.9-0.7,1.6-0.9c0.1,0,0.5-0.1,1-0.2c0.6-0.1,1-0.2,1.4-0.3s0.8-0.2,1.3-0.3
		c0-0.6-0.1-1-0.4-1.3c-0.2-0.3-0.6-0.4-1.3-0.4c-0.6,0-1,0.1-1.3,0.2c-0.3,0.2-0.5,0.4-0.7,0.7c-0.2,0.3-0.3,0.5-0.4,0.6
		c-0.1,0.1-0.3,0.2-0.5,0.2s-0.5-0.1-0.6-0.2c-0.2-0.2-0.3-0.4-0.3-0.6c0-0.4,0.1-0.8,0.4-1.1s0.7-0.7,1.3-0.9
		c0.6-0.2,1.3-0.4,2.2-0.4c1,0,1.7,0.1,2.3,0.3c0.6,0.2,1,0.6,1.2,1.1s0.3,1.2,0.3,2c0,0.5,0,1,0,1.3c0,0.4,0,0.8,0,1.2
		c0,0.4,0.1,0.9,0.2,1.3c0.1,0.5,0.2,0.7,0.2,0.9s-0.1,0.4-0.3,0.6c-0.2,0.2-0.5,0.3-0.7,0.3s-0.5-0.1-0.7-0.3
		C184.1,31.2,183.9,30.9,183.7,30.5z M183.5,27.3c-0.3,0.1-0.8,0.2-1.4,0.4c-0.6,0.1-1,0.2-1.3,0.3c-0.2,0.1-0.5,0.2-0.7,0.4
		s-0.3,0.4-0.3,0.8c0,0.3,0.1,0.6,0.4,0.9c0.3,0.2,0.6,0.4,1,0.4s0.8-0.1,1.2-0.3s0.6-0.4,0.8-0.7s0.3-0.9,0.3-1.7V27.3z"/>
	<path class="st6" d="M190,23.9v0.3c0.4-0.5,0.8-0.9,1.3-1.1s1-0.4,1.6-0.4s1.1,0.1,1.6,0.4s0.8,0.6,1,1.1c0.1,0.3,0.2,0.6,0.3,0.9
		c0,0.3,0.1,0.7,0.1,1.2v4.1c0,0.4-0.1,0.8-0.3,1s-0.5,0.3-0.8,0.3s-0.6-0.1-0.8-0.3s-0.3-0.6-0.3-1v-3.7c0-0.7-0.1-1.3-0.3-1.7
		c-0.2-0.4-0.6-0.6-1.2-0.6c-0.4,0-0.8,0.1-1.1,0.4c-0.3,0.2-0.6,0.6-0.7,1c-0.1,0.3-0.2,0.9-0.2,1.9v2.8c0,0.5-0.1,0.8-0.3,1
		s-0.5,0.3-0.8,0.3s-0.6-0.1-0.8-0.3s-0.3-0.6-0.3-1V24c0-0.4,0.1-0.7,0.3-0.9c0.2-0.2,0.4-0.3,0.8-0.3c0.2,0,0.4,0,0.5,0.1
		c0.2,0.1,0.3,0.2,0.4,0.4C189.9,23.4,190,23.7,190,23.9z"/>
	<path class="st6" d="M206.2,24.3v6.4c0,0.7-0.1,1.4-0.2,1.9s-0.4,1-0.8,1.3s-0.8,0.6-1.4,0.8c-0.6,0.2-1.3,0.3-2.1,0.3
		s-1.4-0.1-2-0.3s-1.1-0.5-1.4-0.8s-0.5-0.7-0.5-1s0.1-0.5,0.3-0.7s0.4-0.3,0.7-0.3s0.6,0.1,0.9,0.4c0.1,0.1,0.2,0.3,0.4,0.4
		c0.1,0.1,0.3,0.3,0.4,0.4s0.3,0.2,0.6,0.2c0.2,0.1,0.5,0.1,0.7,0.1c0.6,0,1-0.1,1.3-0.2c0.3-0.2,0.5-0.4,0.7-0.7
		c0.1-0.3,0.2-0.6,0.2-0.9c0-0.3,0-0.9,0-1.6c-0.3,0.5-0.7,0.8-1.2,1.1c-0.4,0.2-1,0.4-1.6,0.4c-0.7,0-1.4-0.2-1.9-0.6
		c-0.6-0.4-1-0.9-1.3-1.6c-0.3-0.7-0.4-1.5-0.4-2.4c0-0.7,0.1-1.3,0.3-1.8s0.4-1,0.8-1.4c0.3-0.4,0.7-0.6,1.2-0.8
		c0.4-0.2,0.9-0.3,1.4-0.3c0.6,0,1.2,0.1,1.6,0.4c0.5,0.2,0.9,0.6,1.3,1.1v-0.3c0-0.4,0.1-0.7,0.3-0.9c0.2-0.2,0.4-0.3,0.7-0.3
		c0.4,0,0.7,0.1,0.9,0.4C206.1,23.4,206.2,23.8,206.2,24.3z M199.7,27.1c0,0.9,0.2,1.6,0.6,2c0.4,0.5,0.9,0.7,1.5,0.7
		c0.4,0,0.7-0.1,1-0.3s0.6-0.5,0.8-0.9s0.3-0.9,0.3-1.5c0-0.9-0.2-1.6-0.6-2.1c-0.4-0.5-0.9-0.8-1.6-0.8c-0.6,0-1.1,0.2-1.5,0.7
		S199.7,26.2,199.7,27.1z"/>
</g>
</svg>
