<?xml version="1.0" encoding="utf-8"?>
<!-- Generator: Adobe Illustrator 24.3.0, SVG Export Plug-In . SVG Version: 6.00 Build 0)  -->
<svg version="1.1" id="Layer_1" xmlns="http://www.w3.org/2000/svg" xmlns:xlink="http://www.w3.org/1999/xlink" x="0px" y="0px"
	 viewBox="0 0 657.7 175" style="enable-background:new 0 0 657.7 175;" xml:space="preserve">
<style type="text/css">
	.st0{fill:#FFFFFF;}
</style>
<g>
	<path class="st0" d="M54.6,49.8v13.1c8.5-9.3,19-14,31.5-14c14.9,0,25.9,6,33,18c5.8-6.2,11.7-10.8,17.5-13.7
		c5.9-2.9,12.5-4.3,19.8-4.3c11.1,0,19.8,3.5,26.2,10.4s9.6,16.7,9.6,29.3v65.5h-49.6V91.8c0-3.7-0.9-6.6-2.7-8.6
		c-1.8-2.1-4.1-3.1-7-3.1c-3.2,0-6.4,1.1-9.6,3.4v70.6H73.8V91.8c0-3.6-0.9-6.5-2.6-8.6s-4.1-3.1-7.1-3.1c-3.1,0-6.3,1.2-9.6,3.6
		v70.5H2.1V49.8H54.6z"/>
	<path class="st0" d="M211.7,92.7V61.3c14.8-8.3,31.6-12.4,50.4-12.4c17.9,0,31.1,3.9,39.5,11.7s12.7,19.7,12.7,35.8v57.7H262v-7.8
		c-7.8,5.8-16.3,8.7-25.5,8.7c-7.8,0-14.3-2.6-19.5-7.8s-7.8-11.7-7.8-19.5c0-9,3.2-16.2,9.7-21.9c6.5-5.6,14.9-8.5,25.3-8.5
		c6.1,0,12.1,0.8,17.9,2.4c0-4.9-1.8-8.6-5.5-11.4c-3.6-2.7-8.7-4.1-15.2-4.1C231.7,84.4,221.8,87.1,211.7,92.7z M262,131.1v-14.6
		c-3.2-1.1-6-1.6-8.6-1.6c-3.2,0-5.7,0.8-7.6,2.5c-1.9,1.7-2.9,3.9-2.9,6.6c0,2.8,1,5.2,3.1,7.1s4.7,2.9,7.9,2.9
		C257.1,133.9,259.8,133,262,131.1z"/>
	<path class="st0" d="M386.2,72.7c6.7-15.8,16.4-23.7,29-23.7c7.1,0,12.9,2.4,17.5,7.1s6.9,10.7,6.9,18c0,7.6-2.2,13.8-6.7,18.5
		s-10.4,7.1-17.6,7.1c-8.3,0-15.3-3.2-21.2-9.5c-5.2,4.5-7.8,12.9-7.8,25.1v38.9h-52.4V49.8h52.4L386.2,72.7L386.2,72.7z"/>
	<path class="st0" d="M536.2,49.8v29.3h-21.9v22.4c0,7.6,3.3,11.4,9.9,11.4c4.9,0,9.1-2.5,12.6-7.5v41.3c-8.3,5.5-18.3,8.3-30.1,8.3
		c-12.6,0-23.2-3.8-31.9-11.5c-8.6-7.7-12.9-18.3-12.9-31.7V79.1h-21.4L514.3,20v29.8H536.2z"/>
	<path class="st0" d="M552.9,92.7V61.3c14.8-8.3,31.6-12.4,50.4-12.4c17.9,0,31.1,3.9,39.5,11.7c8.5,7.8,12.7,19.7,12.7,35.8v57.7
		h-52.4v-7.8c-7.8,5.8-16.3,8.7-25.5,8.7c-7.8,0-14.3-2.6-19.5-7.8s-7.8-11.7-7.8-19.5c0-9,3.2-16.2,9.7-21.9
		c6.4-5.6,14.9-8.5,25.3-8.5c6.1,0,12.1,0.8,17.9,2.4c0-4.9-1.8-8.6-5.5-11.4c-3.6-2.7-8.7-4.1-15.2-4.1
		C572.8,84.4,563,87.1,552.9,92.7z M603.1,131.1v-14.6c-3.2-1.1-6-1.6-8.6-1.6c-3.2,0-5.7,0.8-7.6,2.5c-1.9,1.7-2.9,3.9-2.9,6.6
		c0,2.8,1,5.2,3.1,7.1s4.7,2.9,7.9,2.9C598.2,133.9,600.9,133,603.1,131.1z"/>
</g>
</svg>
